<svg width="72" height="68" viewBox="0 0 72 68" fill="none" xmlns="http://www.w3.org/2000/svg">
<path fill-rule="evenodd" clip-rule="evenodd" d="M60.067 12.7431C54.7789 7.18421 44.4399 6.85097 38.8009 13.2026L35.787 16.5973L32.566 13.396C26.045 6.91519 16.2462 7.60794 12.2642 12.5548L12.2116 12.6202L12.1565 12.6834C7.11825 18.461 7.27185 27.5371 13.2222 32.7116L13.3448 32.8182L36.0859 55.8541L58.7788 32.867L58.8476 32.8032C64.5469 27.5165 64.9304 18.3875 60.067 12.7431ZM35.4382 4.72128C44.8275 -2.52065 58.7061 -1.1732 66.3777 6.9959L66.4315 7.05317L66.4832 7.11238C74.3852 16.174 73.7877 30.5072 64.7598 38.9544L36.0859 68L7.45771 39.0008C-2.24347 30.438 -2.08084 16.0882 5.63426 7.17489C12.6798 -1.49572 26.0598 -1.85678 35.4382 4.72128Z" fill="#174463"/>
</svg>
