<svg width="129" height="20" viewBox="0 0 129 20" fill="none" xmlns="http://www.w3.org/2000/svg">
<path fill-rule="evenodd" clip-rule="evenodd" d="M34.5345 0.00195312C26.4095 0.00195312 22.788 4.77504 22.788 10.0347C22.788 15.2828 26.9621 19.9979 34.5345 19.9979C42.5536 19.9979 46.375 15.2828 46.375 10.0347C46.375 4.77504 42.5536 0.00195312 34.5345 0.00195312ZM38.0502 11.1816C38.1913 14.5877 37.2977 18.0285 35.4986 18.4223C33.5938 18.1675 31.5714 14.5529 31.3597 9.04996C31.2304 5.85246 31.7948 2.29581 33.7819 1.56595C35.4516 1.86716 37.8268 5.26161 38.0502 11.1816ZM59.0854 0.465355H50.8429V19.5345H64.6471V17.3333L59.0854 17.3449V0.465355ZM76.6638 14.5877H70.4672C70.4672 14.5877 69.5148 18.8394 69.3384 19.5345H66.9398L71.3373 0.465355H82.2725L86.6113 19.5345H77.8044L76.6638 14.5877ZM76.217 12.6182L73.9947 2.97933H73.1481L70.9258 12.6182H76.217ZM118.123 0.465366H107.729V19.5345H115.972V12.7804L117.077 12.8847L120.122 19.5345H129L124.708 13.07L124.367 12.4676C126.648 11.4133 128.059 9.54813 128.13 6.36221C128.177 4.76346 127.683 3.11837 126.472 2.01778C124.612 0.323474 121.843 0.388077 119.386 0.445403C118.953 0.455498 118.53 0.465366 118.123 0.465366ZM118.217 11.4249C118.217 11.4249 116.43 11.3091 115.983 11.228V2.00619C119.911 2.00619 119.911 5.21528 119.911 6.39696C119.911 9.2585 118.217 11.4249 118.217 11.4249ZM100.204 19.5345H91.9611V0.465355H100.204V19.5345ZM20.0714 6.2C20.0714 0.882421 15.3328 0.465355 10.4766 0.465355H0V19.5345H8.25431V14.1938C9.04211 14.356 10.0651 14.4486 11.1351 14.4486C15.5562 14.4486 20.0714 12.9657 20.0714 6.2ZM10.4766 12.6298C10.4766 12.6298 8.74815 12.5371 8.25431 12.4328V2.00618C12.1463 2.00618 12.1463 5.63233 12.1463 6.97621C12.1463 10.5792 10.4766 12.6298 10.4766 12.6298Z" fill="#003154"/>
</svg>
